<svg width="4422" height="1313" viewBox="0 0 4422 1313" fill="none" xmlns="http://www.w3.org/2000/svg">
<rect width="4422" height="1313" rx="110" fill="#F3FBFF"/>
<path d="M1694.36 849.508C1703.34 849.508 1712.72 847.876 1722.51 844.612C1732.71 841.348 1741.89 836.452 1750.05 829.924C1758.21 823.804 1764.94 816.256 1770.25 807.28C1775.55 798.304 1778.41 788.308 1778.82 777.292C1778.82 763.828 1775.76 751.792 1769.64 741.184C1763.52 730.168 1755.76 720.172 1746.38 711.196C1737 702.628 1726.18 695.08 1713.94 688.552C1702.11 681.616 1690.28 675.088 1678.45 668.968C1662.13 661.624 1647.44 654.28 1634.38 646.936C1621.74 639.592 1610.92 631.636 1601.95 623.068C1593.38 614.092 1586.65 603.892 1581.75 592.468C1577.26 580.636 1575.02 566.356 1575.02 549.628C1575.02 513.724 1586.65 483.94 1609.9 460.276C1633.16 436.612 1666.82 424.78 1710.88 424.78C1727.2 425.596 1742.3 427.84 1756.17 431.512C1770.45 435.184 1784.73 439.876 1799.01 445.588C1800.64 446.404 1802.07 447.424 1803.3 448.648C1804.52 449.464 1805.34 450.892 1805.74 452.932C1808.19 468.028 1809.82 481.696 1810.64 493.936C1811.86 505.768 1812.88 519.028 1813.7 533.716C1813.7 537.388 1813.09 539.836 1811.86 541.06C1811.05 541.876 1809.01 542.488 1805.74 542.896C1802.07 543.712 1799.62 543.712 1798.4 542.896C1797.58 541.672 1796.97 539.428 1796.56 536.164C1794.52 527.188 1791.06 517.192 1786.16 506.176C1781.67 494.752 1776.37 485.164 1770.25 477.412C1762.9 468.844 1753.11 462.928 1740.87 459.664C1729.04 456.4 1716.39 454.768 1702.93 454.768C1674.78 454.768 1653.97 461.092 1640.5 473.74C1627.45 486.388 1620.92 500.668 1620.92 516.58C1620.92 529.636 1623.37 540.856 1628.26 550.24C1633.57 559.624 1640.71 567.988 1649.68 575.332C1658.66 582.676 1669.06 589.408 1680.9 595.528C1693.14 601.24 1706.4 607.36 1720.68 613.888C1732.92 620.008 1745.36 626.74 1758.01 634.084C1770.66 641.428 1781.88 649.792 1791.67 659.176C1801.87 668.968 1810.03 680.392 1816.15 693.448C1822.68 706.096 1825.94 720.784 1825.94 737.512C1825.94 781.576 1813.09 816.664 1787.38 842.776C1762.09 868.888 1727.61 881.944 1683.96 881.944C1674.57 881.944 1664.78 880.924 1654.58 878.884C1644.79 876.844 1635 874.192 1625.2 870.928C1615 867.664 1605.42 864.196 1596.44 860.524C1587.87 856.852 1580.32 853.18 1573.8 849.508C1572.16 848.692 1570.74 847.468 1569.51 845.836C1568.29 844.612 1567.68 843.184 1567.68 841.552C1565.23 827.272 1563.19 812.176 1561.56 796.264C1559.92 780.352 1559.11 764.848 1559.11 749.752C1559.11 746.488 1559.31 744.04 1559.72 742.408C1560.54 740.776 1562.58 739.756 1565.84 739.348C1569.1 739.348 1571.35 739.552 1572.57 739.96C1574.2 740.368 1575.43 742.204 1576.24 745.468C1578.69 757.3 1581.96 769.132 1586.04 780.964C1590.12 792.796 1594.81 803.812 1600.11 814.012C1604.6 822.988 1615.41 831.148 1632.55 838.492C1649.68 845.836 1670.29 849.508 1694.36 849.508ZM2151.05 629.188C2153.5 640.204 2152.68 648.976 2148.6 655.504C2144.52 661.624 2138.4 664.684 2130.24 664.684C2121.67 664.684 2115.15 661.012 2110.66 653.668C2106.17 646.324 2103.31 638.98 2102.09 631.636C2100.87 627.148 2099.03 623.272 2096.58 620.008C2094.13 616.744 2090.87 613.276 2086.79 609.604C2081.89 605.932 2075.57 603.484 2067.82 602.26C2060.07 600.628 2050.68 599.812 2039.67 599.812C2024.98 599.812 2011.31 603.076 1998.66 609.604C1986.42 616.132 1975.81 624.904 1966.84 635.92C1957.86 646.936 1950.72 659.992 1945.42 675.088C1940.52 689.776 1938.28 705.484 1938.69 722.212C1938.69 738.94 1941.54 754.852 1947.25 769.948C1953.37 784.636 1961.74 797.692 1972.35 809.116C1982.55 820.132 1994.58 829.108 2008.45 836.044C2022.73 842.572 2038.03 845.836 2054.35 845.836C2071.9 845.836 2088.42 843.592 2103.93 839.104C2119.84 834.616 2132.89 827.476 2143.09 817.684C2144.32 815.236 2145.75 813.808 2147.38 813.4C2149.01 812.992 2150.44 812.992 2151.66 813.4C2152.89 814.624 2153.7 816.052 2154.11 817.684C2154.52 819.316 2154.11 821.356 2152.89 823.804C2144.73 839.716 2130.24 853.384 2109.43 864.808C2089.03 876.232 2065.57 881.944 2039.05 881.944C2015.8 881.944 1994.58 878.476 1975.41 871.54C1956.64 864.604 1940.32 854.812 1926.45 842.164C1912.57 829.108 1901.76 813.604 1894.01 795.652C1886.67 777.7 1882.99 757.504 1882.99 735.064C1882.99 710.176 1887.69 687.736 1897.07 667.744C1906.45 647.344 1918.9 630.004 1934.4 615.724C1949.91 601.444 1967.65 590.428 1987.65 582.676C2007.64 574.924 2028.45 571.048 2050.07 571.048C2062.31 571.048 2074.14 572.68 2085.57 575.944C2097.4 579.208 2107.8 583.492 2116.78 588.796C2126.16 594.1 2133.71 600.22 2139.42 607.156C2145.54 614.092 2149.42 621.436 2151.05 629.188ZM2220.29 427.84C2217.02 427.432 2214.37 426.82 2212.33 426.004C2210.7 424.78 2209.88 422.332 2209.88 418.66C2209.88 415.804 2210.5 413.968 2211.72 413.152C2212.94 411.928 2215.39 410.704 2219.06 409.48C2230.9 407.032 2242.12 403.768 2252.72 399.688C2263.74 395.2 2274.55 389.896 2285.16 383.776C2288.83 381.328 2292.3 380.716 2295.56 381.94C2298.83 383.164 2300.26 386.224 2299.85 391.12C2298.62 401.32 2298.01 412.744 2298.01 425.392C2298.01 437.632 2298.01 446.812 2298.01 452.932V602.872C2298.01 606.952 2298.62 609.4 2299.85 610.216C2301.48 611.032 2303.52 610.216 2305.97 607.768C2316.58 595.528 2329.63 586.348 2345.14 580.228C2361.05 574.108 2377.16 571.048 2393.48 571.048C2423.68 571.048 2447.75 579.208 2465.7 595.528C2484.06 611.848 2493.24 635.308 2493.24 665.908V826.252C2493.24 834.004 2494.06 840.124 2495.69 844.612C2497.32 849.1 2500.38 851.956 2504.87 853.18C2508.54 854.812 2512.42 856.036 2516.5 856.852C2520.98 857.668 2525.47 858.076 2529.96 858.076C2533.22 858.484 2535.67 859.3 2537.3 860.524C2538.94 862.156 2539.75 865.012 2539.75 869.092C2539.75 873.172 2538.53 875.62 2536.08 876.436C2534.04 877.66 2531.59 878.272 2528.74 878.272C2527.51 878.272 2524.04 878.272 2518.33 878.272C2513.03 878.272 2507.32 878.068 2501.2 877.66C2494.67 877.66 2488.55 877.456 2482.84 877.048C2477.12 877.048 2473.25 877.048 2471.21 877.048C2468.76 877.048 2464.27 877.048 2457.74 877.048C2451.62 877.456 2445.3 877.66 2438.77 877.66C2431.84 878.068 2425.51 878.272 2419.8 878.272C2414.5 878.272 2411.23 878.272 2410.01 878.272C2406.74 878.272 2404.09 877.66 2402.05 876.436C2400.42 875.62 2399.6 873.172 2399.6 869.092C2399.6 865.012 2400.22 862.156 2401.44 860.524C2402.66 859.3 2405.11 858.484 2408.78 858.076C2413.68 858.076 2417.96 857.668 2421.64 856.852C2425.31 856.444 2429.39 855.424 2433.88 853.792C2438.77 852.568 2442.24 849.712 2444.28 845.224C2446.32 840.736 2447.34 834.616 2447.34 826.864V680.596C2447.34 654.076 2440.81 635.104 2427.76 623.68C2414.7 612.256 2396.14 606.544 2372.06 606.544C2356.15 606.544 2342.28 609.4 2330.45 615.112C2319.02 620.824 2309.64 629.188 2302.3 640.204C2300.66 642.652 2299.03 646.12 2297.4 650.608C2296.18 654.688 2295.56 658.36 2295.56 661.624V826.864C2295.56 834.616 2296.58 840.532 2298.62 844.612C2300.66 848.692 2304.13 851.344 2309.03 852.568C2313.11 854.2 2316.98 855.424 2320.66 856.24C2324.74 857.056 2329.43 857.668 2334.73 858.076C2338 858.484 2340.24 859.3 2341.46 860.524C2343.1 862.156 2343.91 865.012 2343.91 869.092C2343.91 873.172 2342.89 875.62 2340.85 876.436C2338.81 877.66 2336.36 878.272 2333.51 878.272C2331.88 878.272 2328.2 878.272 2322.49 878.272C2317.19 878.272 2311.07 878.068 2304.13 877.66C2297.6 877.66 2291.28 877.456 2285.16 877.048C2279.04 877.048 2274.76 877.048 2272.31 877.048C2269.86 877.048 2265.58 877.048 2259.46 877.048C2253.74 877.456 2247.62 877.66 2241.1 877.66C2234.57 878.068 2228.45 878.272 2222.74 878.272C2217.43 878.272 2214.17 878.272 2212.94 878.272C2209.68 878.272 2207.03 877.66 2204.99 876.436C2202.95 875.62 2201.93 873.172 2201.93 869.092C2201.93 865.012 2202.54 862.156 2203.76 860.524C2205.4 859.3 2208.05 858.484 2211.72 858.076C2215.8 858.076 2220.08 857.668 2224.57 856.852C2229.47 856.036 2233.96 854.812 2238.04 853.18C2242.12 851.956 2245.18 849.1 2247.22 844.612C2249.26 840.124 2250.28 834.004 2250.28 826.252V449.26C2250.28 441.916 2247.22 437.02 2241.1 434.572C2234.98 431.716 2228.04 429.472 2220.29 427.84ZM2726.43 881.944C2696.23 881.944 2672.16 875.008 2654.21 861.136C2636.67 847.672 2627.89 825.436 2627.89 794.428V626.128C2627.89 622.456 2626.67 619.396 2624.22 616.948C2621.77 614.5 2618.71 612.46 2615.04 610.828C2611.37 609.196 2607.29 607.972 2602.8 607.156C2598.31 605.932 2594.23 604.912 2590.56 604.096C2588.93 604.096 2587.5 603.892 2586.28 603.484C2585.05 603.076 2583.83 602.668 2582.61 602.26C2581.79 601.444 2581.18 600.628 2580.77 599.812C2580.36 598.996 2580.16 597.568 2580.16 595.528C2580.16 591.856 2580.77 589.408 2581.99 588.184C2583.22 586.96 2585.67 586.144 2589.34 585.736C2601.17 584.92 2613.82 583.288 2627.28 580.84C2640.75 578.392 2652.78 575.74 2663.39 572.884C2667.88 571.66 2671.14 571.66 2673.18 572.884C2675.63 574.108 2676.65 576.76 2676.24 580.84C2675.02 587.776 2674.41 596.14 2674.41 605.932C2674.41 615.724 2674.41 623.68 2674.41 629.8V783.412C2674.41 806.668 2680.32 822.784 2692.15 831.76C2704.39 840.328 2721.33 844.612 2742.95 844.612C2761.31 844.612 2777.43 839.512 2791.3 829.312C2805.17 818.704 2814.96 807.892 2820.67 796.876C2821.9 794.428 2822.92 790.96 2823.73 786.472C2824.55 781.576 2824.96 777.088 2824.96 773.008V626.128C2824.96 622.456 2823.73 619.396 2821.29 616.948C2818.84 614.5 2815.78 612.46 2812.11 610.828C2808.43 609.196 2804.35 607.972 2799.87 607.156C2795.79 605.932 2791.91 604.912 2788.24 604.096C2786.61 604.096 2785.18 603.892 2783.95 603.484C2782.73 603.076 2781.51 602.668 2780.28 602.26C2779.47 601.444 2778.85 600.628 2778.45 599.812C2778.04 598.996 2777.83 597.568 2777.83 595.528C2777.83 591.856 2778.45 589.408 2779.67 588.184C2780.89 586.96 2783.34 586.144 2787.01 585.736C2798.44 584.92 2811.09 583.288 2824.96 580.84C2838.83 578.392 2851.07 575.74 2861.68 572.884C2865.76 571.66 2868.82 571.66 2870.86 572.884C2872.9 574.108 2873.71 576.76 2873.31 580.84C2872.08 587.776 2871.47 596.548 2871.47 607.156C2871.47 617.356 2871.47 625.516 2871.47 631.636V817.684C2871.47 823.804 2871.88 828.496 2872.69 831.76C2873.92 835.024 2876.37 837.676 2880.04 839.716C2883.71 841.756 2887.99 843.184 2892.89 844C2898.19 844.408 2903.91 844 2910.03 842.776C2912.47 842.776 2914.51 842.98 2916.15 843.388C2918.19 843.796 2919.61 845.224 2920.43 847.672C2920.84 850.12 2920.84 852.364 2920.43 854.404C2920.43 856.852 2918.8 858.484 2915.53 859.3C2901.66 862.972 2888.2 866.644 2875.14 870.316C2862.09 873.988 2849.03 878.068 2835.97 882.556C2831.49 884.188 2828.22 884.392 2826.18 883.168C2824.14 881.944 2823.12 879.088 2823.12 874.6V844C2823.12 840.328 2822.1 838.288 2820.06 837.88C2818.02 837.064 2815.78 837.88 2813.33 840.328C2804.76 850.12 2792.73 859.504 2777.22 868.48C2762.13 877.456 2745.19 881.944 2726.43 881.944ZM2995.41 449.872C2995.41 442.528 2992.15 437.428 2985.62 434.572C2979.09 431.716 2971.95 429.472 2964.2 427.84C2962.57 427.84 2961.14 427.636 2959.91 427.228C2958.69 426.82 2957.47 426.412 2956.24 426.004C2955.43 425.188 2954.81 424.372 2954.41 423.556C2954 422.332 2953.79 420.7 2953.79 418.66C2953.79 417.028 2953.79 415.804 2953.79 414.988C2954.2 413.764 2954.81 412.948 2955.63 412.54C2956.45 411.724 2957.26 411.316 2958.08 411.316C2959.3 410.908 2960.93 410.296 2962.97 409.48C2974.81 407.032 2986.23 403.768 2997.25 399.688C3008.67 395.2 3019.69 389.896 3030.29 383.776C3033.97 381.328 3037.43 380.716 3040.7 381.94C3043.96 383.164 3045.39 386.224 3044.98 391.12C3043.76 401.32 3042.94 412.744 3042.53 425.392C3042.53 437.632 3042.53 446.812 3042.53 452.932V823.192C3042.53 832.984 3043.55 840.124 3045.59 844.612C3047.63 849.1 3051.31 851.956 3056.61 853.18C3059.87 854.404 3063.95 855.424 3068.85 856.24C3073.75 857.464 3078.44 858.076 3082.93 858.076C3086.19 858.484 3088.64 859.3 3090.27 860.524C3091.9 862.156 3092.72 865.012 3092.72 869.092C3092.72 873.172 3091.49 875.62 3089.05 876.436C3087.01 877.66 3084.56 878.272 3081.7 878.272C3080.48 878.272 3076.81 878.272 3070.69 878.272C3064.97 878.272 3058.45 878.068 3051.1 877.66C3044.17 877.66 3037.43 877.456 3030.91 877.048C3024.79 877.048 3020.71 877.048 3018.67 877.048C3016.22 877.048 3011.73 877.048 3005.2 877.048C2998.67 877.456 2991.94 877.66 2985.01 877.66C2978.07 878.068 2971.75 878.272 2966.03 878.272C2960.32 878.272 2956.85 878.272 2955.63 878.272C2952.37 878.272 2949.71 877.66 2947.67 876.436C2945.63 875.62 2944.61 873.172 2944.61 869.092C2944.61 865.012 2945.23 862.156 2946.45 860.524C2948.08 859.3 2950.73 858.484 2954.41 858.076C2958.49 858.076 2962.97 857.464 2967.87 856.24C2972.77 855.424 2977.25 854.404 2981.33 853.18C2986.23 851.956 2989.7 849.1 2991.74 844.612C2994.19 840.124 2995.41 832.984 2995.41 823.192V449.872ZM3131.33 589.408C3150.91 586.552 3165.19 579.616 3174.17 568.6C3183.14 557.176 3189.06 542.08 3191.91 523.312C3192.32 519.64 3193.55 517.192 3195.59 515.968C3198.03 514.336 3201.5 513.52 3205.99 513.52C3209.25 513.928 3211.91 514.948 3213.95 516.58C3215.99 517.804 3217.01 520.048 3217.01 523.312V565.54C3217.01 571.66 3217.82 575.536 3219.45 577.168C3221.09 578.392 3225.37 579.004 3232.31 579.004H3292.28C3295.14 579.004 3297.38 580.228 3299.01 582.676C3301.05 584.716 3302.07 588.592 3302.07 594.304C3302.07 600.016 3300.85 604.096 3298.4 606.544C3296.36 608.584 3294.12 609.604 3291.67 609.604H3234.14C3227.21 609.604 3222.92 610.42 3221.29 612.052C3219.66 613.276 3218.84 616.948 3218.84 623.068V810.952C3218.84 826.864 3222.11 836.86 3228.63 840.94C3235.57 844.612 3244.34 846.448 3254.95 846.448C3261.89 846.448 3269.43 845.224 3277.59 842.776C3286.16 839.92 3292.89 836.248 3297.79 831.76C3299.83 829.312 3301.67 828.292 3303.3 828.7C3305.34 828.7 3307.58 829.516 3310.03 831.148C3311.66 832.78 3312.48 834.616 3312.48 836.656C3312.89 838.288 3312.07 840.328 3310.03 842.776C3301.87 853.792 3290.85 862.972 3276.98 870.316C3263.52 878.068 3247.61 881.944 3229.25 881.944C3214.56 881.944 3201.09 877.864 3188.85 869.704C3176.61 861.544 3170.49 845.836 3170.49 822.58V623.68C3170.49 617.56 3169.47 613.684 3167.43 612.052C3165.8 610.42 3161.72 609.604 3155.19 609.604H3135C3131.73 610.012 3129.08 609.808 3127.04 608.992C3125.41 608.176 3124.39 605.932 3123.98 602.26C3123.17 598.588 3123.17 595.936 3123.98 594.304C3125.21 592.264 3127.65 590.632 3131.33 589.408ZM3387.39 677.536C3387.39 680.8 3388 683.044 3389.23 684.268C3390.45 685.492 3392.7 686.104 3395.96 686.104C3405.75 686.104 3416.97 686.104 3429.62 686.104C3442.68 686.104 3455.73 686.104 3468.79 686.104C3481.44 685.696 3493.47 685.492 3504.9 685.492C3516.32 685.084 3525.7 684.472 3533.05 683.656C3542.02 682.84 3547.53 679.78 3549.57 674.476C3551.61 668.764 3552.63 664.276 3552.63 661.012C3552.63 643.468 3546.51 628.78 3534.27 616.948C3522.44 604.708 3505.3 598.588 3482.86 598.588C3468.18 598.588 3454.71 601.036 3442.47 605.932C3430.64 610.828 3420.64 617.152 3412.48 624.904C3404.32 632.656 3398 641.224 3393.51 650.608C3389.02 659.992 3386.98 668.968 3387.39 677.536ZM3385.56 721.6C3387.19 744.448 3391.47 763.42 3398.41 778.516C3405.34 793.204 3414.12 805.036 3424.72 814.012C3435.74 822.988 3448.18 829.312 3462.06 832.984C3475.93 836.656 3490.62 838.492 3506.12 838.492C3525.7 838.492 3542.02 835.432 3555.08 829.312C3568.14 823.192 3579.15 815.032 3588.13 804.832C3589.76 801.976 3591.39 800.14 3593.02 799.324C3594.66 798.1 3596.08 797.692 3597.31 798.1C3598.53 799.324 3599.35 800.956 3599.76 802.996C3600.57 805.036 3600.37 807.484 3599.14 810.34C3590.98 828.292 3576.09 844.408 3554.47 858.688C3532.84 872.968 3506.94 880.108 3476.74 880.108C3455.94 880.108 3436.76 876.436 3419.22 869.092C3401.67 862.156 3386.37 852.16 3373.32 839.104C3360.26 825.64 3350.06 809.728 3342.72 791.368C3335.37 773.008 3331.7 752.608 3331.7 730.168C3331.7 704.056 3336.19 681.004 3345.16 661.012C3354.55 641.02 3366.58 624.088 3381.27 610.216C3395.96 596.752 3412.48 586.552 3430.84 579.616C3449.61 572.68 3468.38 569.212 3487.15 569.212C3510.4 569.212 3529.78 573.496 3545.29 582.064C3561.2 590.224 3573.44 600.628 3582.01 613.276C3590.98 626.332 3596.9 640.612 3599.76 656.116C3602.61 671.62 3602.82 686.716 3600.37 701.404C3600.37 705.076 3598.94 708.136 3596.08 710.584C3593.23 712.624 3590.17 713.644 3586.9 713.644L3392.9 712.42C3390.04 712.42 3388 713.032 3386.78 714.256C3385.56 715.48 3385.15 717.928 3385.56 721.6Z" fill="#2E2E2E"/>
<g filter="url(#filter0_d_1_89)">
<rect x="149.004" y="403.675" width="886" height="886" rx="443" transform="rotate(-21.1495 149.004 403.675)" fill="#C5DDF4"/>
</g>
<rect x="535.737" y="574.652" width="295.333" height="295.333" transform="rotate(-21.1495 535.737 574.652)" fill="#F3FBFF"/>
<path d="M451.811 358.308L723.176 1059.76" stroke="black" stroke-width="7" stroke-linecap="round"/>
<path d="M1020.69 386.81L319.237 658.176" stroke="black" stroke-width="7" stroke-linecap="round"/>
<path d="M1127.25 662.251L425.795 933.616" stroke="black" stroke-width="7" stroke-linecap="round"/>
<path d="M727.251 251.751L998.617 953.205" stroke="black" stroke-width="7" stroke-linecap="round"/>
<path d="M447.379 719.092C450.861 716.739 454.268 713.957 457.601 710.746C460.982 707.425 463.599 704.491 465.45 701.945C465.981 701.191 466.572 700.825 467.221 700.848C467.95 700.841 468.515 701.354 468.915 702.389C469.341 703.963 469.807 705.521 470.312 707.064C470.897 708.576 471.467 710.048 472.021 711.481C472.526 713.024 473.072 714.551 473.657 716.063C474.29 717.465 474.884 718.882 475.438 720.315L498.207 779.168C498.853 780.839 499.56 782.076 500.328 782.877C501.175 783.647 502.256 783.96 503.573 783.817C504.762 783.815 506.143 783.601 507.717 783.175C509.37 782.718 510.754 782.274 511.868 781.843C512.535 781.677 513.035 781.666 513.366 781.813C513.807 782.008 514.197 782.543 514.536 783.419C514.906 784.374 514.922 785.008 514.586 785.321C514.28 785.714 513.849 786.018 513.292 786.233C512.814 786.418 511.78 786.818 510.188 787.434C508.676 788.019 507.069 788.595 505.367 789.162C503.616 789.839 501.929 790.446 500.307 790.982C498.795 791.567 497.839 791.937 497.442 792.091C496.964 792.275 495.89 792.691 494.218 793.338C492.578 794.064 490.803 794.796 488.893 795.535C487.013 796.354 485.238 797.086 483.567 797.733C481.895 798.379 480.861 798.78 480.463 798.934C479.826 799.18 479.263 799.261 478.772 799.176C478.392 799.14 478.018 798.644 477.648 797.689C477.31 796.814 477.198 796.171 477.314 795.76C477.46 795.429 477.876 795.085 478.562 794.728C480.312 794.051 481.953 793.325 483.483 792.55C485.013 791.775 486.258 790.973 487.219 790.144C488.21 789.395 488.759 788.45 488.867 787.31C488.975 786.171 488.706 784.765 488.059 783.094L465.245 724.121C464.629 722.529 463.929 721.428 463.143 720.817C462.407 720.095 461.395 719.846 460.109 720.069C458.266 720.508 456.374 721.057 454.433 721.716C452.541 722.265 450.839 722.832 449.327 723.417C448.69 723.663 448.127 723.744 447.636 723.659C447.226 723.543 446.836 723.008 446.466 722.053C446.128 721.178 446.031 720.574 446.178 720.243C446.324 719.912 446.725 719.528 447.379 719.092Z" fill="black"/>
<path d="M1041.89 750.45C1048.57 747.864 1054.11 747.642 1058.51 749.784C1062.91 751.925 1065.98 755.265 1067.74 759.801C1069.31 763.86 1069.4 768.124 1068.02 772.593C1066.72 777.031 1063.6 781.987 1058.68 787.462C1058.37 787.855 1058.32 788.195 1058.52 788.482C1058.73 788.77 1059.07 788.821 1059.54 788.636C1060.02 788.452 1060.46 788.282 1060.86 788.128C1061.3 787.864 1061.77 787.64 1062.24 787.455C1065.98 786.008 1069.53 785.367 1072.89 785.532C1076.25 785.697 1079.34 786.469 1082.16 787.848C1084.9 789.258 1087.36 791.235 1089.53 793.779C1091.67 796.244 1093.38 799.108 1094.64 802.371C1097.29 809.215 1098.29 815.597 1097.65 821.517C1097.02 827.436 1095.32 832.758 1092.58 837.48C1089.83 842.203 1086.26 846.235 1081.88 849.577C1077.53 852.998 1072.97 855.632 1068.2 857.479C1065.57 858.495 1062.76 858.804 1059.77 858.406C1056.78 858.007 1054.69 856.256 1053.48 853.152C1052.93 851.72 1052.88 850.182 1053.35 848.539C1053.92 846.945 1055.16 845.778 1057.07 845.04C1058.19 844.609 1059.36 844.566 1060.59 844.913C1061.82 845.26 1062.86 845.819 1063.71 846.589C1065.2 848.301 1066.71 849.27 1068.26 849.493C1069.89 849.686 1071.74 849.382 1073.81 848.582C1075.88 847.781 1077.97 846.196 1080.07 843.827C1082.21 841.538 1083.96 838.753 1085.35 835.473C1086.65 832.223 1087.45 828.619 1087.75 824.661C1088.05 820.702 1087.42 816.694 1085.85 812.635C1084.09 808.099 1081.74 804.387 1078.79 801.501C1075.93 798.585 1072.6 796.716 1068.8 795.897C1065.04 795.157 1060.9 795.569 1056.38 797.134C1051.83 798.619 1047.05 801.521 1042.04 805.837C1041.5 806.322 1040.96 806.578 1040.42 806.603C1039.93 806.518 1039.38 806.045 1038.77 805.182C1038.22 804.479 1038.01 803.921 1038.12 803.511C1038.29 802.99 1038.6 802.502 1039.07 802.048C1041.85 799.782 1044.61 797.206 1047.33 794.321C1050.11 791.326 1052.43 788.231 1054.31 785.035C1056.26 781.809 1057.62 778.583 1058.39 775.359C1059.12 772.056 1058.92 768.931 1057.78 765.987C1056.36 762.326 1054.12 759.947 1051.04 758.85C1047.96 757.753 1044.51 757.944 1040.69 759.422C1037.99 760.469 1035.61 762.486 1033.56 765.474C1031.6 768.43 1030.53 771.588 1030.37 774.945C1030.33 775.785 1030.11 776.416 1029.73 776.84C1029.39 777.153 1028.78 777.344 1027.89 777.413C1026.84 777.544 1026.19 777.386 1025.92 776.939C1025.66 776.492 1025.49 775.825 1025.42 774.937C1024.98 769.528 1026.2 764.661 1029.11 760.336C1031.98 755.931 1036.24 752.636 1041.89 750.45Z" fill="black"/>
<path d="M564.33 985.568C563.945 985.991 563.569 986.32 563.202 986.553C562.804 986.707 562.344 986.702 561.823 986.538C561.253 986.484 560.892 986.258 560.738 985.86C560.553 985.382 560.536 984.748 560.688 983.958C561.204 981.745 562.735 979.552 565.279 977.378C567.872 975.094 570.562 973.413 573.347 972.335C576.053 971.288 578.88 970.79 581.827 970.839C584.822 970.778 587.7 971.358 590.459 972.577C593.249 973.877 595.857 975.888 598.282 978.609C600.787 981.3 602.887 984.834 604.58 989.211C606.396 993.907 607.312 998.402 607.326 1002.7C607.341 1006.99 606.638 1010.97 605.218 1014.63C603.687 1018.24 601.488 1021.42 598.62 1024.18C595.752 1026.94 592.313 1029.05 588.303 1030.51C584.085 1032.14 579.868 1032.95 575.653 1032.93C571.438 1032.91 567.447 1031.94 563.682 1030.01C559.837 1028.11 556.281 1025.19 553.014 1021.24C549.716 1017.21 546.82 1011.97 544.326 1005.52C540.724 996.21 539.248 987.311 539.9 978.824C540.63 970.307 542.772 962.479 546.323 955.341C549.795 948.233 554.32 941.954 559.897 936.503C565.474 931.051 571.307 926.736 577.397 923.557C577.715 923.433 578.049 923.35 578.398 923.306C578.716 923.183 578.97 923.131 579.16 923.149C579.43 923.136 579.65 923.234 579.822 923.442C580.043 923.539 580.255 923.732 580.458 924.019C580.907 924.944 581.168 925.62 581.243 926.049C581.286 926.398 581.021 926.775 580.445 927.181C575.036 930.463 570.06 934.629 565.518 939.68C560.976 944.732 557.409 950.412 554.817 956.721C552.177 963.141 550.751 970.097 550.539 977.59C550.296 985.004 551.73 992.73 554.839 1000.77C556.81 1005.86 559.106 1010.14 561.729 1013.61C564.321 1017 567.041 1019.65 569.887 1021.57C572.813 1023.46 575.732 1024.62 578.643 1025.05C581.602 1025.37 584.395 1025.02 587.022 1024C589.568 1023.02 591.621 1021.58 593.18 1019.7C594.738 1017.81 595.864 1015.64 596.558 1013.18C597.203 1010.82 597.406 1008.27 597.168 1005.53C597.009 1002.75 596.446 999.998 595.479 997.261C593.958 993.092 592.181 989.799 590.148 987.383C588.195 984.936 586.124 983.13 583.934 981.964C581.745 980.798 579.517 980.242 577.25 980.295C574.953 980.269 572.729 980.672 570.581 981.503C569.069 982.088 567.841 982.7 566.899 983.339C565.957 983.978 565.101 984.721 564.33 985.568Z" fill="black"/>
<path d="M812.996 893.211C808.277 898.514 805.582 903.491 804.911 908.142C804.24 912.794 804.69 917.149 806.26 921.208C807.984 925.665 810.934 928.915 815.11 930.959C819.256 932.924 824.552 932.659 830.998 930.165C837.206 927.764 841.056 924.353 842.548 919.933C844.01 915.433 843.826 910.701 841.997 905.736C840.119 900.881 836.764 897.65 831.933 896.042C827.102 894.434 820.79 893.49 812.996 893.211ZM823.022 883.294C831.005 883.591 837.423 885.043 842.274 887.649C847.094 890.176 850.751 894.663 853.245 901.109C854.538 904.452 855.063 907.818 854.818 911.206C854.574 914.595 853.618 917.801 851.951 920.824C850.285 923.848 847.892 926.649 844.772 929.229C841.652 931.808 837.904 933.944 833.527 935.638C824.454 939.148 816.522 939.929 809.73 937.982C803.017 936.004 798.368 931.672 795.782 924.987C793.226 918.381 793.007 912.61 795.123 907.674C797.239 902.738 800.829 897.827 805.892 892.94C799.195 892.42 793.754 890.774 789.57 888.001C785.387 885.227 782.31 881.294 780.339 876.2C777.999 870.152 778.352 864.205 781.398 858.361C784.413 852.437 789.86 847.95 797.739 844.902C805.379 841.947 812.255 841.391 818.367 843.235C824.558 845.049 828.824 848.98 831.164 855.029C833.301 860.79 833.449 865.902 831.607 870.366C829.766 874.829 826.904 879.139 823.022 883.294ZM816.248 883.17C820.038 878.776 822.171 874.474 822.647 870.264C823.202 866.023 822.787 862.112 821.402 858.531C819.832 854.472 817.234 851.542 813.61 849.742C809.955 847.862 805.461 847.954 800.129 850.017C795.195 851.925 791.913 854.796 790.285 858.628C788.705 862.35 788.778 866.44 790.502 870.896C792.226 875.353 795.4 878.471 800.023 880.251C804.646 882.031 810.054 883.004 816.248 883.17Z" fill="black"/>
<path d="M385.926 492.837C386.232 492.444 386.584 492.171 386.982 492.017C387.379 491.863 387.863 491.813 388.433 491.867C388.954 492.031 389.307 492.352 389.492 492.83C389.646 493.227 389.671 493.767 389.569 494.447C389.003 496.77 387.409 499.034 384.785 501.238C382.24 503.412 379.615 505.022 376.909 506.069C374.124 507.147 371.233 507.716 368.237 507.777C365.321 507.807 362.483 507.212 359.724 505.993C356.934 504.693 354.326 502.682 351.901 499.961C349.476 497.239 347.401 493.65 345.677 489.193C343.891 484.577 342.951 480.137 342.857 475.874C342.842 471.579 343.545 467.601 344.966 463.941C346.496 460.329 348.696 457.145 351.564 454.389C354.432 451.632 357.895 449.469 361.954 447.899C366.123 446.378 370.315 445.625 374.53 445.641C378.746 445.657 382.736 446.63 386.501 448.559C390.346 450.456 393.918 453.421 397.216 457.452C400.562 461.372 403.467 466.516 405.93 472.883C409.533 482.194 410.984 491.149 410.284 499.746C409.553 508.263 407.412 516.091 403.86 523.229C400.388 530.337 395.863 536.616 390.287 542.067C384.71 547.519 378.901 551.779 372.86 554.848C372.064 555.156 371.436 555.307 370.977 555.302C370.548 555.376 370.14 555.031 369.753 554.266C369.224 553.372 368.923 552.711 368.848 552.283C368.805 551.933 369.095 551.501 369.719 550.985C375.079 547.813 380.031 543.702 384.573 538.651C389.146 533.679 392.728 528.039 395.32 521.73C397.991 515.389 399.448 508.513 399.69 501.099C399.982 493.575 398.558 485.754 395.417 477.636C393.478 472.622 391.172 468.436 388.5 465.078C385.877 461.609 383.143 458.916 380.296 456.998C377.37 455.11 374.412 453.967 371.421 453.569C368.51 453.14 365.782 453.418 363.235 454.403C360.609 455.419 358.531 456.909 357.004 458.872C355.445 460.756 354.359 462.915 353.745 465.348C353.02 467.733 352.737 470.313 352.896 473.088C353.134 475.832 353.761 478.517 354.777 481.144C356.25 485.423 357.963 488.786 359.916 491.233C361.948 493.649 364.059 495.44 366.249 496.606C368.438 497.772 370.666 498.328 372.933 498.275C375.28 498.191 377.527 497.733 379.676 496.901C381.108 496.347 382.296 495.751 383.238 495.112C384.26 494.442 385.156 493.684 385.926 492.837Z" fill="black"/>
<path d="M619.699 453.866C631.149 447.514 639.455 440.367 644.617 432.423C649.858 424.448 650.908 416.402 647.768 408.284C646.475 404.941 644.533 402.17 641.943 399.969C639.433 397.738 636.288 396.347 632.506 395.797C628.646 395.278 624.156 395.734 619.037 397.165C613.966 398.486 608.225 401.028 601.811 404.79C601.285 405.085 600.817 405.175 600.406 405.059C600.044 404.833 599.804 404.331 599.686 403.553L593.695 361.815C593.565 360.768 593.551 359.904 593.654 359.224C593.836 358.513 594.405 357.973 595.36 357.603L625.116 343.347C625.673 343.131 626.093 343.152 626.375 343.409C626.707 343.555 626.98 343.907 627.195 344.464L628.319 350.205C628.603 351.651 628.55 352.815 628.16 353.698C627.818 354.47 627.289 354.995 626.573 355.272L601.792 366.781C601.107 367.137 600.627 367.552 600.352 368.024C600.126 368.386 600.081 368.861 600.217 369.449L603.128 387.262C603.184 387.881 603.424 388.383 603.848 388.768C604.271 389.153 604.826 389.167 605.511 388.811C611.082 386.655 616.464 385.076 621.658 384.074C626.82 382.992 631.593 382.792 635.974 383.476C640.326 384.08 644.189 385.788 647.564 388.6C650.988 391.301 653.731 395.318 655.794 400.65C658.165 406.778 658.969 412.643 658.208 418.244C657.417 423.765 655.448 428.965 652.302 433.841C649.157 438.718 644.953 443.226 639.693 447.366C634.542 451.554 628.653 455.251 622.024 458.456C621.338 458.813 620.799 458.838 620.407 458.533C620.045 458.307 619.685 457.851 619.329 457.165C618.923 456.59 618.692 455.993 618.636 455.375C618.69 454.805 619.044 454.302 619.699 453.866Z" fill="black"/>
<path d="M872.656 318.676C873.684 314.71 874.576 310.75 875.334 306.797C876.172 302.813 876.762 299.017 877.104 295.408C877.495 291.688 877.59 288.266 877.387 285.142C877.234 281.907 876.68 279.056 875.726 276.589C873.601 271.098 870.537 267.434 866.533 265.598C862.608 263.731 857.9 263.859 852.409 265.984C848.111 267.646 845.004 270.495 843.088 274.53C841.142 278.486 840.295 282.565 840.548 286.767C840.587 287.576 840.453 288.176 840.148 288.569C839.811 288.882 839.199 289.073 838.311 289.142C837.263 289.273 836.528 289.146 836.104 288.761C835.76 288.345 835.554 287.693 835.485 286.804C834.755 279.95 835.686 273.963 838.28 268.842C840.923 263.611 845.905 259.579 853.227 256.746C860.628 253.883 867.312 253.539 873.277 255.715C879.243 257.89 883.488 262.241 886.012 268.767C887.151 271.712 887.758 274.817 887.832 278.082C887.906 281.347 887.637 284.791 887.025 288.413C886.444 292.115 885.551 296.074 884.346 300.292C883.19 304.399 881.967 308.806 880.678 313.514C879.655 317.02 878.573 320.962 877.429 325.338C876.335 329.605 875.387 333.54 874.585 337.144C874.403 337.855 874.413 338.354 874.616 338.642C874.898 338.898 875.373 338.943 876.04 338.777C876.818 338.659 877.685 338.415 878.64 338.046C879.595 337.676 880.629 337.276 881.743 336.845L897.143 330.887C900.247 329.686 902.432 328.475 903.698 327.254C904.964 326.032 905.726 324.456 905.986 322.526C906.094 321.386 906.18 320.071 906.245 318.583C906.309 317.094 906.331 315.85 906.311 314.851C906.303 314.122 906.388 313.632 906.565 313.38C906.743 313.129 907.22 312.944 907.998 312.826C908.647 312.85 909.098 312.95 909.349 313.127C909.601 313.304 909.81 313.726 909.977 314.394C910.774 318.111 911.409 321.525 911.881 324.637C912.352 327.748 912.837 331.129 913.334 334.78C913.391 335.398 913.235 335.824 912.868 336.058C912.611 336.34 912.324 336.543 912.005 336.666L878.938 349.459C876.311 350.475 873.605 351.522 870.82 352.599C868.065 353.756 865.43 354.867 862.914 355.932C862.308 356.258 861.809 356.268 861.416 355.963C861.023 355.657 860.967 355.039 861.247 354.107C861.856 352.133 862.569 350.073 863.385 347.927C864.202 345.781 865.086 343.335 866.036 340.588C866.986 337.842 868.013 334.7 869.115 331.163C870.217 327.625 871.397 323.463 872.656 318.676Z" fill="black"/>
<path d="M727.667 626.168C728.981 624.836 730.273 624.154 731.541 624.121C732.809 624.088 733.674 624.668 734.136 625.862L746.374 657.497C746.867 658.77 747.334 659.505 747.776 659.7C748.217 659.895 749.114 659.731 750.467 659.207L758.585 656.067C759.301 655.79 759.896 655.789 760.368 656.063C760.889 656.228 761.427 657.026 761.981 658.459C762.473 659.732 762.558 660.66 762.234 661.243C761.88 661.746 761.424 662.105 760.867 662.321L752.869 665.415C751.516 665.938 750.757 666.461 750.593 666.982C750.398 667.423 750.531 668.241 750.993 669.435L755.011 679.821C755.657 681.492 756.364 682.728 757.132 683.529C757.978 684.299 759.06 684.613 760.377 684.469C761.566 684.467 762.748 684.33 763.924 684.058C765.1 683.786 766.245 683.435 767.359 683.004C768.026 682.837 768.526 682.827 768.857 682.973C769.298 683.168 769.688 683.704 770.027 684.579C770.396 685.534 770.413 686.168 770.077 686.481C769.771 686.874 769.34 687.178 768.783 687.394C768.305 687.578 767.35 687.948 765.918 688.502C764.565 689.026 763.077 689.555 761.454 690.091C759.783 690.738 758.216 691.299 756.752 691.773C755.4 692.297 754.524 692.635 754.126 692.789C753.649 692.974 752.574 693.39 750.903 694.036C749.342 694.732 747.607 695.449 745.696 696.188C743.817 697.006 742.042 697.739 740.371 698.385C738.779 699.001 737.784 699.386 737.386 699.54C736.75 699.786 736.186 699.867 735.696 699.782C735.316 699.746 734.941 699.251 734.572 698.295C734.233 697.42 734.121 696.777 734.237 696.366C734.383 696.035 734.799 695.691 735.485 695.335C737.236 694.657 738.876 693.931 740.406 693.156C741.937 692.381 743.182 691.579 744.142 690.75C745.133 690.001 745.683 689.056 745.791 687.917C745.899 686.777 745.629 685.371 744.983 683.7L740.965 673.314C740.503 672.12 740.012 671.441 739.491 671.277C739.018 671.002 738.145 671.111 736.872 671.604L709.057 682.364C706.749 683.257 704.843 682.942 703.339 681.42C701.884 679.787 701.463 677.753 702.077 675.32L719.26 594.149C719.327 593.849 719.393 593.548 719.46 593.248C719.607 592.917 719.729 592.641 719.826 592.42C719.924 592.199 720.037 592.018 720.165 591.877C720.342 591.626 720.59 591.438 720.909 591.315L725.684 589.468C726.4 589.191 726.881 589.371 727.127 590.007C727.423 590.534 727.439 591.168 727.177 591.909L709.636 673.219C709.485 674.01 709.495 674.509 709.667 674.717C709.808 674.845 710.197 674.786 710.834 674.54L734.471 665.396C735.744 664.903 736.478 664.436 736.673 663.995C736.948 663.522 736.839 662.65 736.347 661.376L725.586 633.561C725.032 632.129 724.879 630.907 725.129 629.895C725.427 628.774 726.273 627.531 727.667 626.168Z" fill="black"/>
<path d="M930.814 523.287C933.771 522.417 936.762 521.397 939.786 520.227C942.81 519.057 945.795 517.903 948.739 516.763L981.568 504.063C982.046 503.878 982.466 503.899 982.828 504.125C983.159 504.271 983.233 504.7 983.051 505.411L982.374 610.802C982.351 611.452 982.251 611.902 982.074 612.154C981.927 612.485 981.576 612.758 981.019 612.974L976.243 614.821C975.686 615.036 975.282 615.056 975.031 614.878C974.779 614.701 974.665 614.288 974.688 613.638L975.058 520.581C975.05 519.852 974.81 519.35 974.338 519.075C973.914 518.69 973.305 518.651 972.509 518.959L941.948 530.782C940.675 531.275 939.809 532.113 939.352 533.296C938.895 534.479 938.493 535.687 938.146 536.919C937.848 538.041 937.667 539.346 937.602 540.835C937.587 542.214 937.571 543.592 937.555 544.971C937.594 545.779 937.484 546.325 937.228 546.607C936.971 546.889 936.478 547.034 935.749 547.042C935.051 547.129 934.536 547.099 934.205 546.953C933.874 546.807 933.649 546.345 933.531 545.567C932.777 542.199 932.063 538.815 931.389 535.416C930.763 531.907 930.202 528.327 929.704 524.676C929.581 524.358 929.624 524.113 929.831 523.941C930.009 523.689 930.336 523.471 930.814 523.287Z" fill="black"/>
<defs>
<filter id="filter0_d_1_89" x="274.881" y="213.881" width="894.238" height="923.238" filterUnits="userSpaceOnUse" color-interpolation-filters="sRGB">
<feFlood flood-opacity="0" result="BackgroundImageFix"/>
<feColorMatrix in="SourceAlpha" type="matrix" values="0 0 0 0 0 0 0 0 0 0 0 0 0 0 0 0 0 0 127 0" result="hardAlpha"/>
<feOffset dy="33"/>
<feGaussianBlur stdDeviation="2"/>
<feComposite in2="hardAlpha" operator="out"/>
<feColorMatrix type="matrix" values="0 0 0 0 0 0 0 0 0 0 0 0 0 0 0 0 0 0 0.25 0"/>
<feBlend mode="normal" in2="BackgroundImageFix" result="effect1_dropShadow_1_89"/>
<feBlend mode="normal" in="SourceGraphic" in2="effect1_dropShadow_1_89" result="shape"/>
</filter>
</defs>
</svg>
